<?xml version="1.0" encoding="UTF-8"?>
<svg xmlns="http://www.w3.org/2000/svg" xmlns:xlink="http://www.w3.org/1999/xlink" width="598.05pt" height="280.55pt" viewBox="0 0 598.05 280.55" version="1.1">
<defs>
<clipPath id="clip1">
  <path d="M 0 0 L 598.050781 0 L 598.050781 280 L 0 280 Z M 0 0 "/>
</clipPath>
<clipPath id="clip2">
  <path d="M 127 51 L 471 51 L 471 280.550781 L 127 280.550781 Z M 127 51 "/>
</clipPath>
</defs>
<g id="surface1">
<g clip-path="url(#clip1)" clip-rule="nonzero">
<path style=" stroke:none;fill-rule:nonzero;fill:rgb(0%,0%,0%);fill-opacity:1;" d="M 169.523438 192.050781 L 125.523438 195.546875 L 109.023438 214.550781 L 94.023438 200.046875 L 48.027344 210.546875 C 14.523438 219.046875 0.0234375 250.550781 0.0234375 250.550781 C -1.476563 168.050781 62.523438 86.265625 62.523438 86.265625 C 94.023438 35.480469 156.464844 -0.00390625 156.464844 -0.00390625 L 159.9375 18.988281 C 159.9375 18.988281 162.484375 28.027344 185.1875 33.816406 L 220.863281 45.164063 L 251.4375 45.164063 L 251.4375 20.613281 L 264.414063 38.445313 L 333.636719 38.449219 L 346.609375 20.613281 L 346.609375 45.164063 L 377.1875 45.164063 L 412.859375 33.816406 C 435.5625 28.027344 438.109375 18.988281 438.109375 18.988281 L 441.585938 -0.00390625 C 441.585938 -0.00390625 504.023438 35.480469 535.523438 86.261719 C 535.523438 86.261719 599.523438 168.050781 598.023438 250.550781 C 598.023438 250.550781 583.523438 219.046875 550.023438 210.546875 L 504.023438 200.046875 L 489.023438 214.550781 L 472.523438 195.546875 L 428.523438 192.050781 L 299.023438 279.050781 "/>
</g>
<g clip-path="url(#clip2)" clip-rule="nonzero">
<path style=" stroke:none;fill-rule:nonzero;fill:rgb(100%,24.299622%,21.199036%);fill-opacity:1;" d="M 397.523438 77.296875 C 408.023438 80.546875 404.523438 71.296875 404.523438 71.296875 C 401.023438 61.046875 360.523438 65.546875 360.523438 65.546875 C 378.277344 69.796875 397.523438 77.296875 397.523438 77.296875 M 332.605469 238.707031 C 312.507813 243.429688 262.871094 238.707031 262.871094 238.707031 C 283.910156 255.769531 299.023438 267.300781 299.023438 267.300781 Z M 299.023438 228.433594 C 361.117188 223.960938 356.40625 208.332031 356.40625 208.332031 C 355.082031 187.96875 289.230469 191.671875 289.230469 191.671875 C 250.355469 194.582031 191.15625 176.914063 191.15625 176.914063 C 201.007813 186.109375 210.457031 196.714844 221.121094 205.167969 C 221.121094 205.167969 256.519531 228.820313 295.023438 228.433594 Z M 203.523438 66.824219 L 194.679688 66.824219 C 160.742188 94.492188 142.472656 123.730469 142.472656 123.730469 C 146.976563 130.640625 161.917969 158.40625 161.15625 146.976563 C 157.792969 96.402344 203.523438 66.824219 203.523438 66.824219 M 452.4375 128.277344 C 453.570313 126.722656 454.617188 125.203125 455.578125 123.730469 C 455.578125 123.730469 443.007813 103.617188 419.351563 80.964844 C 419.351563 80.964844 423.394531 94.390625 434.195313 106.25 Z M 429.796875 154.503906 C 436.753906 147.300781 442.960938 140.394531 448.054688 134.019531 C 448.054688 134.019531 410.527344 73.296875 332.773438 68.046875 C 332.773438 68.046875 239.023438 60.546875 230.023438 84.046875 C 230.023438 84.046875 223.519531 104.796875 286.023438 104.296875 C 286.023438 104.296875 368.273438 105.792969 390.023438 118.796875 C 390.023438 118.796875 418.273438 131.546875 428.523438 150.796875 Z M 299.023438 280.550781 C 159.523438 178.550781 127.460938 125.835938 127.460938 125.835938 C 144.035156 89.421875 189.992188 56.523438 189.992188 56.523438 C 260.464844 44.988281 408.054688 56.523438 408.054688 56.523438 C 408.054688 56.523438 454.015625 89.421875 470.589844 125.835938 C 470.589844 125.835938 438.699219 178.257813 300.179688 279.707031 "/>
</g>
</g>
</svg>
